<svg xmlns="http://www.w3.org/2000/svg" viewBox="0 0 500 500"><g id="freepik--background-complete--inject-144"><g><rect x="111.23" y="59.62" width="71.82" height="135.39" style="fill:#e6e6e6;"></rect><rect x="95.17" y="59.62" width="84.36" height="135.39" style="fill:#f0f0f0;"></rect><rect x="107.99" y="71.65" width="58.68" height="111.34" style="fill:#fff;"></rect><rect x="126.02" y="95.09" width="23.41" height="65.06" style="fill:#f0f0f0;"></rect></g><g><rect x="355.55" y="57.21" width="71.82" height="135.39" style="fill:#e6e6e6;"></rect><rect x="339.48" y="57.21" width="84.36" height="135.39" style="fill:#f0f0f0;"></rect><rect x="352.31" y="69.24" width="58.68" height="111.34" style="fill:#fff;"></rect><rect x="370.34" y="92.68" width="23.41" height="65.06" style="fill:#f0f0f0;"></rect></g><g><g><path d="M427.07,357.73c-.02-.49-1.66-49.08-9.57-56.77-7.69-7.47-16.51-.28-16.88,.03l-.79-.95c.1-.08,10.06-8.21,18.54,.03,8.26,8.03,9.88,55.6,9.94,57.62l-1.24,.04Z" style="fill:#e0e0e0;"></path><path d="M427.75,367.28c-.06-.58-5.4-58.34,15.69-82.55l.93,.81c-20.74,23.81-15.45,81.04-15.39,81.61l-1.23,.12Z" style="fill:#e0e0e0;"></path><path d="M426.97,361.17l-1.23-.08c.04-.65,4.13-65.66-11.34-79.89l.84-.91c15.91,14.63,11.92,78.19,11.74,80.89Z" style="fill:#e0e0e0;"></path><path d="M428.98,361.14h-1.24c.02-1.8,.51-43.92,12.47-50.78,2.66-1.53,5.26-1.78,7.74-.76,7.23,2.99,10.82,15.87,10.97,16.41l-1.19,.33c-.03-.13-3.57-12.84-10.25-15.6-2.1-.87-4.34-.64-6.65,.69-11.35,6.51-11.85,49.27-11.85,49.7Z" style="fill:#e0e0e0;"></path><path d="M424.32,361.17l-1.23-.07c.02-.33,1.8-33.28-7.09-44.89-2.15-2.81-4.49-4.15-6.97-3.98-5.83,.41-10.71,8.93-10.76,9.02l-1.08-.61c.21-.37,5.26-9.19,11.75-9.64,2.9-.21,5.61,1.3,8.04,4.46,9.17,11.97,7.42,44.35,7.34,45.72Z" style="fill:#e0e0e0;"></path><path d="M426.27,365.65c-.24-3.2-5.81-78.44,3.99-91.7l.99,.73c-9.53,12.89-3.81,90.09-3.75,90.87l-1.23,.09Z" style="fill:#e0e0e0;"></path></g><path d="M450.63,317.23s-5.88,2.17-4.13,7.29c1.75,5.12,20.34,13.54,20.34,13.54,0,0,7.79-7.14,.64-18.75-7.15-11.61-16.69-5.74-16.85-2.08Z" style="fill:#ebebeb;"></path><path d="M425.06,307.49s6.26-.26,6.62,5.13c.36,5.4-13.57,20.33-13.57,20.33,0,0-9.94-3.59-7.8-17.06,2.13-13.47,13.19-11.72,14.75-8.4Z" style="fill:#ebebeb;"></path><path d="M419.76,281.65s4.18-.45,3.84-2.99c-.34-2.54-16.23-9.09-25.61,1.5,0,0,6,10.31,14.68,10.45,8.68,.13,7.08-8.95,7.08-8.95Z" style="fill:#ebebeb;"></path><path d="M427.54,275.48s-3.78,1.83-4.84-.51c-1.06-2.34,8.97-16.3,22.52-12.27,0,0,.36,11.93-6.94,16.63-7.3,4.71-10.75-3.85-10.75-3.85Z" style="fill:#ebebeb;"></path><path d="M407.77,315.17s2.88-2.33-.23-3.46c-3.11-1.14-18.37-.81-18.53,14.3,0,0,17.77,2.95,19.97-2.8,2.2-5.76-1.22-8.04-1.22-8.04Z" style="fill:#ebebeb;"></path><path d="M444.01,281.27s-2.88-2.33,.23-3.46c3.11-1.14,18.37-.81,18.53,14.3,0,0-17.77,2.95-19.97-2.8-2.2-5.76,1.22-8.04,1.22-8.04Z" style="fill:#ebebeb;"></path><path d="M434.61,293.45s-.25-2.83,2.03-1.72c2.28,1.11,10.24,9.69,1.99,17.83,0,0-11.1-8.22-9.1-12.5,2-4.28,5.08-3.61,5.08-3.61Z" style="fill:#ebebeb;"></path><path d="M405.19,297.48s1.72-2.26-.8-2.54c-2.52-.28-13.83,2.74-11.2,14.02,0,0,13.77-1.04,14.36-5.72,.59-4.69-2.37-5.76-2.37-5.76Z" style="fill:#ebebeb;"></path><polygon points="440.56 382.94 412.78 382.94 405.39 348.85 447.25 348.85 440.56 382.94" style="fill:#f0f0f0;"></polygon><rect x="402.87" y="348.36" width="46.79" height="9.8" style="fill:#e6e6e6;"></rect></g><g><g><path d="M68.3,357.73c-.02-.49-1.66-49.08-9.57-56.77-7.69-7.47-16.51-.28-16.88,.03l-.79-.95c.1-.08,10.06-8.21,18.54,.03,8.26,8.03,9.88,55.6,9.94,57.62l-1.24,.04Z" style="fill:#e0e0e0;"></path><path d="M68.97,367.28c-.06-.58-5.4-58.34,15.69-82.55l.93,.81c-20.74,23.81-15.45,81.04-15.39,81.61l-1.23,.12Z" style="fill:#e0e0e0;"></path><path d="M68.19,361.17l-1.23-.08c.04-.65,4.13-65.66-11.34-79.89l.84-.91c15.91,14.63,11.92,78.19,11.74,80.89Z" style="fill:#e0e0e0;"></path><path d="M70.21,361.14h-1.24c.02-1.8,.51-43.92,12.47-50.78,2.66-1.53,5.26-1.78,7.74-.76,7.23,2.99,10.82,15.87,10.97,16.41l-1.19,.33c-.03-.13-3.57-12.84-10.25-15.6-2.1-.87-4.34-.64-6.65,.69-11.35,6.51-11.85,49.27-11.85,49.7Z" style="fill:#e0e0e0;"></path><path d="M65.55,361.17l-1.23-.07c.02-.33,1.8-33.28-7.09-44.89-2.15-2.81-4.49-4.15-6.97-3.98-5.83,.41-10.71,8.93-10.76,9.02l-1.08-.61c.21-.37,5.26-9.19,11.75-9.64,2.9-.21,5.61,1.3,8.04,4.46,9.17,11.97,7.42,44.35,7.34,45.72Z" style="fill:#e0e0e0;"></path><path d="M67.5,365.65c-.24-3.2-5.81-78.44,3.99-91.7l.99,.73c-9.53,12.89-3.81,90.09-3.75,90.87l-1.23,.09Z" style="fill:#e0e0e0;"></path></g><path d="M91.85,317.23s-5.88,2.17-4.13,7.29c1.75,5.12,20.34,13.54,20.34,13.54,0,0,7.79-7.14,.64-18.75-7.15-11.61-16.69-5.74-16.85-2.08Z" style="fill:#ebebeb;"></path><path d="M66.29,307.49s6.26-.26,6.62,5.13c.36,5.4-13.57,20.33-13.57,20.33,0,0-9.94-3.59-7.8-17.06,2.13-13.47,13.19-11.72,14.75-8.4Z" style="fill:#ebebeb;"></path><path d="M60.99,281.65s4.18-.45,3.84-2.99c-.34-2.54-16.23-9.09-25.61,1.5,0,0,6,10.31,14.68,10.45,8.68,.13,7.08-8.95,7.08-8.95Z" style="fill:#ebebeb;"></path><path d="M68.77,275.48s-3.78,1.83-4.84-.51c-1.06-2.34,8.97-16.3,22.52-12.27,0,0,.36,11.93-6.94,16.63-7.3,4.71-10.75-3.85-10.75-3.85Z" style="fill:#ebebeb;"></path><path d="M49,315.17s2.88-2.33-.23-3.46c-3.11-1.14-18.37-.81-18.53,14.3,0,0,17.77,2.95,19.97-2.8,2.2-5.76-1.22-8.04-1.22-8.04Z" style="fill:#ebebeb;"></path><path d="M85.24,281.27s-2.88-2.33,.23-3.46c3.11-1.14,18.37-.81,18.53,14.3,0,0-17.77,2.95-19.97-2.8-2.2-5.76,1.22-8.04,1.22-8.04Z" style="fill:#ebebeb;"></path><path d="M75.84,293.45s-.25-2.83,2.03-1.72c2.28,1.11,10.24,9.69,1.99,17.83,0,0-11.1-8.22-9.1-12.5,2-4.28,5.08-3.61,5.08-3.61Z" style="fill:#ebebeb;"></path><path d="M46.42,297.48s1.72-2.26-.8-2.54c-2.52-.28-13.83,2.74-11.2,14.02,0,0,13.77-1.04,14.36-5.72,.59-4.69-2.37-5.76-2.37-5.76Z" style="fill:#ebebeb;"></path><polygon points="81.79 382.94 54.01 382.94 46.62 348.85 88.47 348.85 81.79 382.94" style="fill:#f0f0f0;"></polygon><rect x="44.1" y="348.36" width="46.79" height="9.8" style="fill:#e6e6e6;"></rect></g><g><g><path d="M186.03,357.73c-.02-.49-1.66-49.08-9.57-56.77-7.69-7.47-16.51-.28-16.88,.03l-.79-.95c.1-.08,10.06-8.21,18.54,.03,8.26,8.03,9.88,55.6,9.94,57.62l-1.24,.04Z" style="fill:#e0e0e0;"></path><path d="M186.71,367.28c-.06-.58-5.4-58.34,15.69-82.55l.93,.81c-20.74,23.81-15.45,81.04-15.39,81.61l-1.23,.12Z" style="fill:#e0e0e0;"></path><path d="M185.93,361.17l-1.23-.08c.04-.65,4.13-65.66-11.34-79.89l.84-.91c15.91,14.63,11.92,78.19,11.74,80.89Z" style="fill:#e0e0e0;"></path><path d="M187.94,361.14h-1.24c.02-1.8,.51-43.92,12.47-50.78,2.66-1.53,5.26-1.78,7.74-.76,7.23,2.99,10.82,15.87,10.97,16.41l-1.19,.33c-.03-.13-3.57-12.84-10.25-15.6-2.1-.87-4.34-.64-6.65,.69-11.35,6.51-11.85,49.27-11.85,49.7Z" style="fill:#e0e0e0;"></path><path d="M183.29,361.17l-1.23-.07c.02-.33,1.8-33.28-7.09-44.89-2.15-2.81-4.49-4.15-6.97-3.98-5.83,.41-10.71,8.93-10.76,9.02l-1.08-.61c.21-.37,5.26-9.19,11.75-9.64,2.9-.21,5.61,1.3,8.04,4.46,9.17,11.97,7.42,44.35,7.34,45.72Z" style="fill:#e0e0e0;"></path><path d="M185.24,365.65c-.24-3.2-5.81-78.44,3.99-91.7l.99,.73c-9.53,12.89-3.81,90.09-3.75,90.87l-1.23,.09Z" style="fill:#e0e0e0;"></path></g><path d="M209.59,317.23s-5.88,2.17-4.13,7.29c1.75,5.12,20.34,13.54,20.34,13.54,0,0,7.79-7.14,.64-18.75-7.15-11.61-16.69-5.74-16.85-2.08Z" style="fill:#ebebeb;"></path><path d="M184.02,307.49s6.26-.26,6.62,5.13c.36,5.4-13.57,20.33-13.57,20.33,0,0-9.94-3.59-7.8-17.06,2.13-13.47,13.19-11.72,14.75-8.4Z" style="fill:#ebebeb;"></path><path d="M178.72,281.65s4.18-.45,3.84-2.99c-.34-2.54-16.23-9.09-25.61,1.5,0,0,6,10.31,14.68,10.45,8.68,.13,7.08-8.95,7.08-8.95Z" style="fill:#ebebeb;"></path><path d="M186.5,275.48s-3.78,1.83-4.84-.51c-1.06-2.34,8.97-16.3,22.52-12.27,0,0,.36,11.93-6.94,16.63-7.3,4.71-10.75-3.85-10.75-3.85Z" style="fill:#ebebeb;"></path><path d="M166.73,315.17s2.88-2.33-.23-3.46c-3.11-1.14-18.37-.81-18.53,14.3,0,0,17.77,2.95,19.97-2.8,2.2-5.76-1.22-8.04-1.22-8.04Z" style="fill:#ebebeb;"></path><path d="M202.97,281.27s-2.88-2.33,.23-3.46c3.11-1.14,18.37-.81,18.53,14.3,0,0-17.77,2.95-19.97-2.8-2.2-5.76,1.22-8.04,1.22-8.04Z" style="fill:#ebebeb;"></path><path d="M193.58,293.45s-.25-2.83,2.03-1.72c2.28,1.11,10.24,9.69,1.99,17.83,0,0-11.1-8.22-9.1-12.5,2-4.28,5.08-3.61,5.08-3.61Z" style="fill:#ebebeb;"></path><path d="M164.16,297.48s1.72-2.26-.8-2.54c-2.52-.28-13.83,2.74-11.2,14.02,0,0,13.77-1.04,14.36-5.72,.59-4.69-2.37-5.76-2.37-5.76Z" style="fill:#ebebeb;"></path><polygon points="199.52 382.94 171.74 382.94 164.35 348.85 206.21 348.85 199.52 382.94" style="fill:#f0f0f0;"></polygon><rect x="161.83" y="348.36" width="46.79" height="9.8" style="fill:#e6e6e6;"></rect></g><g><g><g><path d="M443.92,321.5h-180.75c-3.23,0-5.86-2.63-5.86-5.86V52.36c0-3.23,2.63-5.86,5.86-5.86h180.75c3.23,0,5.86,2.63,5.86,5.86V315.64c0,3.23-2.63,5.86-5.86,5.86ZM263.17,46.75c-3.09,0-5.61,2.52-5.61,5.61V315.64c0,3.09,2.52,5.61,5.61,5.61h180.75c3.09,0,5.61-2.52,5.61-5.61V52.36c0-3.09-2.52-5.61-5.61-5.61h-180.75Z" style="fill:#e0e0e0;"></path><path d="M235.49,321.5H54.75c-3.23,0-5.86-2.63-5.86-5.86V52.36c0-3.23,2.63-5.86,5.86-5.86H235.49c3.23,0,5.86,2.63,5.86,5.86V315.64c0,3.23-2.63,5.86-5.86,5.86ZM54.75,46.75c-3.09,0-5.61,2.52-5.61,5.61V315.64c0,3.09,2.52,5.61,5.61,5.61H235.49c3.09,0,5.61-2.52,5.61-5.61V52.36c0-3.09-2.52-5.61-5.61-5.61H54.75Z" style="fill:#e0e0e0;"></path></g><rect x="0" y="382.57" width="500" height=".25" style="fill:#e0e0e0;"></rect></g><rect x="51.67" y="396.83" width="16.06" height=".25" style="fill:#e0e0e0;"></rect><rect x="170.35" y="394.12" width="53.53" height=".25" style="fill:#e0e0e0;"></rect><rect x="68.73" y="406.12" width="36.25" height=".25" style="fill:#e0e0e0;"></rect><rect x="378.35" y="393.99" width="43.19" height=".25" style="fill:#e0e0e0;"></rect><rect x="430.45" y="393.99" width="6.33" height=".25" style="fill:#e0e0e0;"></rect><rect x="316.21" y="400.22" width="53.89" height=".25" style="fill:#e0e0e0;"></rect></g></g><g id="freepik--Shadow--inject-144"><path d="M458.88,471.54c0,3.39-93.52,6.13-208.88,6.13s-208.88-2.75-208.88-6.13,93.52-6.13,208.88-6.13,208.88,2.75,208.88,6.13Z" style="fill:#f5f5f5;"></path></g><g id="freepik--Character--inject-144"><g><g><g><path d="M304.55,176.79s-.38-9.85,1.26-11.2c1.65-1.35,3.46-1.55,3.46-1.55,0,0,8.44-14.2,10.34-12.72,1.02,.8-.48,4.63-4.57,11.29,0,0,4.12-.62,3.84,2.15,0,0,3.16-.23,3.19,3.02,0,0,2.37,1.58,1.69,3.79-.68,2.21-5.39,9.88-9.05,12.64-1.11,.84-1.92,.97-3.3,.56,0,0-5.36,16.32-8.84,16.32l-3.63-17.67,5.6-6.62Z" style="fill:#eec1bb;"></path><path d="M310.3,177.09c-.09,0-.17-.05-.22-.13-.07-.12-.02-.27,.1-.34,1.04-.57,1.75-1.79,1.86-3.18,.1-1.31-.43-3.46-.99-4.65-.04-.09-.03-.19,.04-.27,.06-.07,.17-.1,.26-.08,1.62,.5,4.5-.15,5.34-1.52,.44-.73,.38-1.19-.22-1.71-.27-.23-1.2-.25-1.75-.26-.19,0-.36,0-.49-.01-.79-.05-1.59-.16-2.35-.26-.76-.1-1.55-.21-2.32-.26-.14,0-.24-.13-.23-.27,0-.14,.14-.25,.26-.23,.79,.05,1.59,.16,2.36,.26,.76,.1,1.55,.21,2.32,.26,.12,0,.28,.01,.46,.01,.9,.01,1.68,.05,2.06,.38,.8,.68,.9,1.41,.33,2.35-.88,1.44-3.59,2.15-5.41,1.85,.5,1.28,.93,3.17,.84,4.44-.12,1.56-.93,2.93-2.12,3.58-.04,.02-.08,.03-.12,.03Z" style="opacity:.3;"></path><path d="M320.16,175.31c-.1,0-.2,0-.29-.03-.95-.19-1.43-1.24-1.47-2.13-.02-.51,.05-1.01,.21-1.49-.2,.12-.41,.21-.61,.28-.96,.33-2.02,.17-2.71-.42-.78-.68-.97-1.9-.4-2.68,.08-.11,.24-.14,.35-.06,.11,.08,.14,.24,.06,.35-.41,.57-.26,1.51,.32,2.01,.55,.48,1.42,.61,2.22,.33,.44-.15,.87-.43,1.27-.81,.18-.27,.4-.53,.65-.75,.09-.08,.24-.08,.33,0,.1,.09,.11,.23,.04,.33-.2,.27-.41,.52-.63,.74-.41,.63-.62,1.38-.59,2.14,.03,.72,.41,1.53,1.07,1.66,.38,.08,.82-.08,1.19-.41,.35-.33,.6-.76,.84-1.19,.07-.12,.22-.16,.34-.1s.16,.22,.09,.34c-.25,.44-.53,.93-.94,1.31-.4,.36-.88,.56-1.33,.56Z" style="opacity:.3;"></path></g><path d="M269.32,148.31s1.59-.62,3.38,1.02,20.02,40.93,20.02,40.93l8.6-10.69,16.65,39.67s-12.1,13.59-25.54,14.79c-13.44,1.19-23.91-26.56-23.91-26.56l-4.32-40.5,5.13-18.64Z" style="fill:#263238;"></path><path d="M292.72,190.26c-2.47,7.74-3.46,16.01-2.57,24.1-1.57-8-.55-16.58,2.57-24.1h0Z"></path></g><g><path d="M152.67,214.35s-17.09-28.11-17.62-31c-.53-2.89,6.41-8.29,6.41-8.29l19.02,17.79-7.81,21.5Z" style="fill:#eec1bb;"></path><path d="M196.78,151.33s-1.59-.62-3.38,1.02c-1.79,1.64-20.02,40.93-20.02,40.93l-8.6-10.69-24.67,38.73s20.12,14.54,33.57,15.73c13.44,1.19,26.57-29.54,26.57-29.54l1.66-37.53-5.13-18.64Z" style="fill:#263238;"></path><path d="M173.65,198.97c2.99,6.65,3.77,14.39,2.14,21.5,.94-7.25,.21-14.58-2.14-21.5h0Z"></path><polygon points="181.7 190.57 178.93 196.52 142.71 203.21 132.02 148.18 135.02 143.9 171.15 138.55 181.7 190.57" style="fill:#4C7766;"></polygon><polygon points="135.02 143.9 146.2 197.24 142.71 203.21 132.02 148.18 135.02 143.9" style="opacity:.3;"></polygon><polygon points="144.46 201.72 147.09 197.44 181.3 191.42 179.54 195.21 144.46 201.72" style="fill:#fff;"></polygon><path d="M148.09,194.72l-.1-.47c-9.72-47.69-9.5-47.97-9.31-48.22l.12-.16,30.69-4.41,10.15,48.12-31.56,5.13Zm-8.47-47.95c.58,3.97,6.71,34.29,9.26,46.81l29.57-4.81-9.74-46.18-29.1,4.18Z" style="opacity:.3;"></path><g><path d="M145.78,153.61l1.91-.29,.63,4.18,2.55-.39,.22,1.48-4.46,.67-.85-5.66Z" style="fill:#fff;"></path><path d="M155.41,156.94l-2.15,.32-.23,1.04-1.94,.29,1.62-6.03,1.88-.28,3.33,5.29-1.97,.3-.53-.93Zm-.73-1.3l-.76-1.34-.33,1.51,1.1-.17Z" style="fill:#fff;"></path><path d="M166.26,150.52l-.96,5.93-2.05,.31-1.37-2.89-.51,3.17-2.05,.31-2.67-5.39,1.96-.3,1.47,3.07,.56-3.38,1.75-.26,1.48,3.11,.55-3.42,1.81-.27Z" style="fill:#fff;"></path></g><rect x="146.71" y="162.03" width="22.48" height="2.44" transform="translate(-22.58 25.38) rotate(-8.58)" style="opacity:.3;"></rect><rect x="147.4" y="166.57" width="22.48" height="2.44" transform="translate(-23.25 25.53) rotate(-8.58)" style="opacity:.3;"></rect><rect x="153.28" y="171.12" width="13.68" height="2.44" transform="translate(-23.91 25.81) rotate(-8.58)" style="opacity:.3;"></rect><rect x="152.19" y="186.59" width="22.65" height="2.44" transform="translate(-26.18 26.48) rotate(-8.58)" style="opacity:.3;"></rect><rect x="144.25" y="146.17" width="22.65" height="2.44" transform="translate(-20.24 24.85) rotate(-8.58)" style="opacity:.3;"></rect><g><path d="M130.58,176.19c-.5,2.63,1.49,11,4.72,11.48,3.23,.48,11.64-3.65,11.81-4.89,.17-1.24-2.22-1.04-2.22-1.04,0,0,4-1.87,3.4-3.38-.58-1.46-3.81-.57-3.81-.57,0,0,3.64-1.4,2.73-3.3-.75-1.59-4.66-.34-4.66-.34,0,0,3.47-1.35,1.5-3.06-1.97-1.71-8.05-.21-8.05-.21h0s-4.67,1.46-5.41,5.31Z" style="fill:#eec1bb;"></path><path d="M142.62,174.33h-.02l-6.92,1.86c-.09,.02-.19-.04-.22-.14-.03-.1,.02-.21,.11-.23l6.92-1.85c.09-.02,.19,.04,.22,.14,.03,.1-.01,.2-.1,.23Z" style="opacity:.2;"></path><path d="M144.35,178.04h0l-6.5,2.31c-.09,.03-.19-.02-.23-.13-.04-.1,0-.19,.1-.24l6.5-2.31c.09-.03,.19,.03,.23,.13,.04,.1,0,.21-.09,.24Z" style="opacity:.2;"></path><path d="M144.74,182l-4.78,1.85c-.09,.03-.19-.02-.23-.12-.04-.1,0-.21,.09-.25l4.78-1.85c.09-.03,.19,.02,.23,.12,.04,.1,0,.21-.09,.25Z" style="opacity:.2;"></path></g></g><g><g><path d="M223.78,100.64c.7-1.98-.61-4.31-2.54-5.11-1.94-.8-4.25-.26-5.93,1-1.68,1.26-2.8,3.13-3.58,5.08-2.65,6.64-1.51,14.65,2.88,20.29,2.13,2.73,5.12,4.97,8.56,5.37,3.44,.39,7.24-1.49,8.29-4.79l-7.68-21.84Z" style="fill:#263238;"></path><path d="M211.16,103.25s2.6,5.14,12.95-.88l1.73,3.12s-11.22,6.4-15.31,.55c0,0,.27-1.63,.63-2.78Z" style="fill:#fff; opacity:.3;"></path><g><path d="M246.43,94.69s9.05,17.81,9.31,23.25c3.59,3.29,6.46-3.01,6.63-11.6,.14-7.03-3.25-14.74-9.22-17.69-8.38-4.14-6.73,6.03-6.73,6.03Z" style="fill:#263238;"></path><g><g><path d="M243.91,144.86c-1.56-1.68-2.24-3.39-1.84-5.74,.28-1.81,.93-3.67,1.7-5.48l-2.33-2.72-12.16-12.27c.3,8.2,1.29,21.36-5.12,25.81,0,0-8.43,2.14-11.9,2.86,2.07,1.7,9.72,32.12,22,31.13,11.17-.9,18.07-27.87,19.25-32.48-3.17-.99-6.6-.44-9.6-1.11Z" style="fill:#eec1bb;"></path><path d="M241.97,139.83c-3.34-1.99-7.01-5.43-6.57-9.36,.2-1.66,.55-3.23,.95-4.23l6.79,9c-.56,1.45-.76,2.41-1.17,4.6Z" style="opacity:.2;"></path><path d="M225.83,105.49c1.14,12.5,1.37,17.8,7.81,24.35,9.7,9.86,24.62,6.54,27.19-5.85,2.31-11.15,.05-29.71-12.22-34.96-12.09-5.17-23.93,3.96-22.79,16.46Z" style="fill:#eec1bb;"></path><path d="M243.7,110.48c-.03,1.17,.6,2.19,1.42,2.28,.82,.09,1.51-.79,1.54-1.97,.03-1.17-.6-2.19-1.42-2.28-.82-.09-1.51,.79-1.54,1.97Z" style="fill:#263238;"></path><path d="M255.34,109.85c-.1,1.13,.48,2.16,1.29,2.29,.81,.13,1.54-.68,1.64-1.81,.1-1.13-.48-2.16-1.29-2.29-.81-.13-1.54,.68-1.64,1.81Z" style="fill:#263238;"></path><path d="M242.1,106.7c.14,.07,.31,.09,.47,.03,2.45-.95,4.23,.43,4.25,.45,.26,.21,.63,.16,.82-.12,.19-.28,.12-.67-.14-.88-.09-.07-2.33-1.81-5.37-.63-.3,.12-.45,.48-.33,.81,.06,.16,.17,.28,.3,.35Z" style="fill:#263238;"></path><path d="M259.64,105.19c.12-.1,.2-.23,.21-.39,.03-.32-.23-.61-.58-.64-3.49-.29-5.31,1.82-5.38,1.91-.21,.26-.17,.62,.11,.82,.28,.2,.67,.16,.89-.1,.07-.08,1.51-1.7,4.28-1.47,.18,.02,.35-.04,.47-.14Z" style="fill:#263238;"></path><path d="M222.05,115.67c1.48,2.56,3.87,4.17,6.07,4.72,3.31,.83,5.02-4.49,3.89-7.8-1.02-2.98-4.27-4.96-7.49-4.31-3.17,.64-4.16,4.46-2.47,7.39Z" style="fill:#eec1bb;"></path><path d="M250.99,108.91s1.95,4.68,4.16,7.59c.39,.51,.15,1.25-.45,1.47-1.54,.57-3.35,.05-3.35,.05l-.36-9.12Z" style="fill:#d4827d;"></path></g><path d="M244.76,108.6l2.91-.44s-1.74,2-2.91,.44Z" style="fill:#263238;"></path><path d="M256.68,108.03l2.94-.26s-1.86,1.89-2.94,.26Z" style="fill:#263238;"></path></g><g><path d="M222.71,98.55c-1.78,2.38,1.33,9.61,1.33,9.61,0,0,6.05-1.56,6.05,7.47,2.19,.45,4.98-7.88,4.92-16.36-.27-4.8-9.16-4.93-12.31-.72Z" style="fill:#263238;"></path><path d="M258.25,92.89c-2.44-5.58-13.01-11.07-25.57-6.22-11.35,4.37-15.16,20.52-7.11,21.42,8.05,.91,17.86-6.65,17.86-6.65l14.82-8.55Z" style="fill:#263238;"></path></g><path d="M227.5,117.21s-.04,0-.07,0c-1.98-.55-2.86-1.63-3.24-2.45-.45-.95-.38-1.81-.17-2.3,.44-.99,1.69-1.71,2.87-1.21,.13,.05,.19,.2,.13,.33-.05,.13-.2,.19-.33,.13-.89-.38-1.89,.19-2.22,.95-.16,.37-.22,1.09,.16,1.89,.34,.72,1.13,1.68,2.93,2.18,.13,.04,.21,.17,.17,.31-.03,.11-.13,.18-.24,.18Z" style="opacity:.2;"></path></g><circle cx="226.87" cy="120.37" r="1.72" style="fill:#4C7766;"></circle><path d="M255.24,94.25c-2.87,3.64-6.91,5.94-10.96,8.05-4.59,2.4-9.58,5.12-14.94,4.05-.47-.09-.67,.63-.2,.72,5.3,1.05,10.2-1.37,14.78-3.75,4.34-2.25,8.75-4.64,11.84-8.55,.3-.37-.23-.91-.53-.53h0Z" style="fill:#263238;"></path></g><g><path d="M249.11,120.22c-1-.64-3.07-.64-4.15-.13-1.08,.51-1.82,1.07-2.54,2.02,2.07,.65,4.77,1.7,6.84,2.35,1.58-2.35,.85-3.6-.15-4.24Z" style="fill:#263238;"></path><path d="M243.27,121.2c.07-.06,2.79-.09,4.34,1,1.52,1.07,1.64,2.26,1.64,2.26l-6.84-2.35s.45-.58,.85-.91Z" style="fill:#d16f62;"></path><path d="M249.11,120.22c-.86-.55-2.5-.62-3.63-.31,.12,0,3.51,1.46,3.97,1.52,.2,.03,.44,.02,.64,0-.17-.54-.54-.93-.98-1.2Z" style="fill:#fff;"></path></g></g><g><path d="M202.38,451.22l1.16,1.57,2.31-.97,1.44,6.91,9.74,13.21s3.71,.58,.79-6.93c-.13-.34-.24-.72-.31-1.14-.87-4.49,1.04-13.1,1.04-13.1l-5.34-7.25s-.56,0-1.51,.16c-2.21,.36-6.64,1.41-9.32,7.52Z" style="fill:#4C7766;"></path><path d="M202.38,451.22l1.16,1.57,2.31-.97,1.44,6.91,9.74,13.21s3.71,.58,.79-6.93c-.13-.34-.24-.72-.31-1.14-.87-4.49,1.04-13.1,1.04-13.1l-5.34-7.25s-.56,0-1.51,.16c-2.21,.36-6.64,1.41-9.32,7.52Z" style="opacity:.2;"></path><path d="M211.7,443.7l-.02,.02c1.8,.19,.22,7.92,.94,12.26,.65,3.87,2.37,7.53,4.89,7.91-.87-4.49,2.26-14.72,2.26-14.72l-4.3-5.83s-2.82,.21-3.77,.37Z" style="fill:#d4827d;"></path></g><g><path d="M213.77,471.79h1.98l.55-2.4,6.57,2.9h16.64s2.65-2.6-5.28-4.68c-.36-.09-.73-.23-1.12-.42-4.23-1.94-10.24-8.49-10.24-8.49h-9.13s-.32,.45-.75,1.29c-1,1.97-2.72,6.09,.78,11.8Z" style="fill:#4C7766;"></path><path d="M212.99,459.99v.03c1.21-1.32,6.69,4.46,10.71,6.43,3.59,1.75,7.62,2.52,9.41,.75-4.23-1.94-10.94-10.85-10.94-10.85l-7.34,.22s-1.42,2.59-1.85,3.43Z" style="fill:#eec1bb;"></path></g><path d="M232.41,381.57c4.53-12.12,10.08-24.05,16.74-33.7-27.24-75.86-26.38-109.8-26.38-109.8l32.8-.03,3.49,12.69s8.19,31.58,10.58,49.71l6.84,40.31v.11c.46,8.37-1.44,16.68-5.52,24.05-4.46,8.04-12.34,17.59-16.67,26.26-5.69,11.44-11.06,22.91-15.65,33.17-4.83,10.82-8.77,20.27-11.22,26.83-2.32,.26-9.34-3.84-11.35-7.55,0,0,4.97-31.64,16.33-62.06Z" style="fill:#263238;"></path><path d="M232.41,381.57c4.53-12.12,10.08-24.05,16.74-33.7-27.24-75.86-26.38-109.8-26.38-109.8l32.8-.03,3.49,12.69s8.19,31.58,10.58,49.71l6.84,40.31v.11c.46,8.37-1.44,16.68-5.52,24.05-4.46,8.04-12.34,17.59-16.67,26.26-5.69,11.44-11.06,22.91-15.65,33.17-4.83,10.82-8.77,20.27-11.22,26.83-2.32,.26-9.34-3.84-11.35-7.55,0,0,4.97-31.64,16.33-62.06Z" style="fill:#fff; opacity:.3;"></path><path d="M238.66,424.35c-4.83,10.82-8.77,20.27-11.22,26.83-2.32,.26-9.34-3.84-11.35-7.55,0,0,4.96-31.64,16.33-62.06,2.31,12.56,4.89,28.44,6.24,42.78Z" style="opacity:.2;"></path><path d="M247.29,238.76s-12.48,83.8-13.94,102.67c0,0-7.71,91.52-6.33,114.52l-17.2,.81s-11.57-69.32-5.72-113.8c.51-5.8-4.82-43.62-5.66-58.69-2.03-36.25,13.12-46.21,13.12-46.21l35.72,.69Z" style="fill:#263238;"></path><g style="opacity:.3;"><path d="M247.29,238.76s-12.48,83.8-13.94,102.67c0,0-7.71,91.52-6.33,114.52l-17.2,.81s-11.57-69.32-5.72-113.8c.51-5.8-4.82-43.62-5.66-58.69-2.03-36.25,13.12-46.21,13.12-46.21l35.72,.69Z" style="fill:#fff;"></path></g><g><g><polygon points="220.29 145.27 223.12 144.56 227.95 138.11 235.6 143.63 242.59 139.49 245.74 143.99 252.27 144.54 235.74 176.15 220.29 145.27" style="fill:#4C7766;"></polygon><polygon points="220.29 145.27 223.12 144.56 227.95 138.11 235.6 143.63 242.59 139.49 245.74 143.99 252.27 144.54 235.74 176.15 220.29 145.27" style="fill:#fff; opacity:.8;"></polygon><path d="M223.12,144.56l7.5,6.51,4.97-6.99,4.66,6.06,5.48-6.14s-5.37,7.59-5.53,7.53c-.17-.06-4.61-6.61-4.61-6.61l-5.03,7.65-7.45-8Z" style="opacity:.2;"></path><polygon points="231.83 149.37 233.84 152.97 237.62 152.97 239.46 149.09 236.57 145.34 234.66 145.41 231.83 149.37" style="fill:#4C7766;"></polygon><polygon points="233.84 152.97 231.83 162.9 237.37 171.41 240.86 162.91 237.62 152.97 233.84 152.97" style="fill:#4C7766;"></polygon></g><path d="M194.84,151.76l25.83-7.16,16.7,26.8,11.55-28.04,20.41,4.95,1.3,60.4,18.58,156.5s-25.39,11.38-50.54,9.32c-25.15-2.06-52.19-5.86-52.19-5.86l11.79-145.15-3.42-71.77Z" style="fill:#263238;"></path><path d="M195.42,152.97c.8,6.61,2.28,19.92,3,26.53l-.17-.15c16.42-.09,51.4-.86,67.05-.51,.75-6.89,2.4-20.75,3.23-27.63-.7,6.9-2.13,20.77-2.9,27.67-16.49,.67-50.62,.58-67.37,.81h-.15l-.02-.15c-.69-6.62-2.05-19.95-2.67-26.57h0Z"></path><path d="M218.16,179.9c.34,2.3,.34,4.61,0,6.91-.34-2.3-.34-4.61,0-6.91h0Z"></path><path d="M223.57,179.65c1.2,23.59,2.16,49.55,2.7,73.16-1.2-23.59-2.15-49.54-2.7-73.16h0Z"></path><path d="M243.32,178.72c.33,17.54,.33,36.84,0,54.38-.33-17.54-.33-36.84,0-54.38h0Z"></path><path d="M248.73,178.47c1,11.04,1.74,23.21,2.08,34.3-1-11.04-1.73-23.21-2.08-34.3h0Z"></path><path d="M265.46,178.86l3.73,30.29s4.04-11.97,1.79-20.23c-2.25-8.26-3.9-24.75-3.9-24.75l-1.63,14.69Z" style="opacity:.3;"></path><path d="M198.25,179.53c.02,1.45-.51,33.25-.51,33.25,0,0-2.43-6.93-2.67-12.09-.51-11.12,3.18-21.15,3.18-21.15Z" style="opacity:.3;"></path></g></g></g><g id="freepik--Podium--inject-144"><g><g><g><rect x="295.41" y="250.31" width="120.29" height="9.09" style="fill:#4C7766;"></rect><polygon points="398.32 473.02 312.71 473.02 303.44 257.98 407.67 257.98 398.32 473.02" style="fill:#4C7766;"></polygon><rect x="303.44" y="259.49" width="104.23" height="6.37" style="opacity:.3;"></rect></g><path d="M387.35,447.4h-63.65v-.12l-6.88-167.38h77.46v.13l-6.93,167.37Zm-63.41-.25h63.17l6.91-167h-76.94l6.86,167Z" style="fill:#263238;"></path><polygon points="381.07 440.29 329.79 440.29 322.76 288.63 388.34 288.63 381.07 440.29" style="fill:#fff; opacity:.3;"></polygon><rect x="307.66" y="461.29" width="95.79" height="13.17" style="fill:#4C7766;"></rect><polygon points="323.82 447.27 329.79 440.29 381.07 440.29 387.23 447.27 323.82 447.27" style="opacity:.3;"></polygon><polygon points="316.95 280.03 322.76 288.63 388.34 288.63 394.15 280.03 316.95 280.03" style="opacity:.3;"></polygon><polygon points="398.83 461.29 312.21 461.29 312.03 457.22 398.83 457.22 398.83 461.29" style="opacity:.3;"></polygon></g><g><rect x="352.64" y="248.35" width="19.26" height="1.96" style="fill:#4C7766;"></rect><rect x="352.64" y="248.35" width="19.26" height="1.96" style="fill:#263238; isolation:isolate; opacity:.3;"></rect></g><g id="freepik--freepik--hammer-of-law--inject-2--inject-144"><path d="M314.12,250h0c-1.06-1.01-1.5-2.51-1.16-3.93l.09-.16,35.26-8.95,1.11,4.11-35.3,8.92Z" style="fill:#4C7766;"></path><path d="M314.12,250h0c-1.06-1.01-1.5-2.51-1.16-3.93l.09-.16,35.26-8.95,1.11,4.11-35.3,8.92Z" style="fill:#263238; isolation:isolate; opacity:.5;"></path><rect x="346.15" y="236.33" width="5.17" height="5.38" transform="translate(-50.27 99.24) rotate(-15.12)" style="fill:#4C7766;"></rect><rect x="346.15" y="236.33" width="5.17" height="5.38" transform="translate(-50.27 99.24) rotate(-15.12)" style="fill:#263238; isolation:isolate; opacity:.7;"></rect><rect x="349" y="229.7" width="8.54" height="16.18" transform="translate(-49.8 100.38) rotate(-15.12)" style="fill:#4C7766;"></rect><rect x="349" y="229.7" width="8.54" height="16.18" transform="translate(-49.8 100.38) rotate(-15.12)" style="fill:#263238; isolation:isolate; opacity:.3;"></rect><rect x="345.87" y="227.46" width="10.56" height="4.92" rx="1.19" ry="1.19" transform="translate(-47.82 99.56) rotate(-15.12)" style="fill:#4C7766;"></rect><rect x="350.11" y="243.2" width="10.56" height="4.92" rx="1.19" ry="1.19" transform="translate(-51.78 101.21) rotate(-15.12)" style="fill:#4C7766;"></rect><g style="opacity:.5;"><rect x="345.87" y="227.46" width="10.56" height="4.92" rx="1.19" ry="1.19" transform="translate(-47.82 99.56) rotate(-15.12)" style="fill:#263238;"></rect><rect x="350.11" y="243.2" width="10.56" height="4.92" rx="1.19" ry="1.19" transform="translate(-51.78 101.21) rotate(-15.12)" style="fill:#263238;"></rect></g></g></g></g></svg>
